<svg width="25" height="25" viewBox="0 0 25 25" fill="none" xmlns="http://www.w3.org/2000/svg">
<g opacity="0.9">
<path d="M23.1109 11.4691C20.75 7.95155 16.7831 5.85156 12.5 5.85156C8.21684 5.85156 4.24994 7.95155 1.8894 11.4683C1.47703 12.0813 1.47703 12.874 1.88902 13.4874C4.16606 16.8791 7.93684 18.9466 12.0437 19.0902C12.3069 19.1137 12.5757 19.1178 12.8394 19.0938C16.9916 18.9858 20.8127 16.9108 23.1106 13.4874C23.5233 12.874 23.5233 12.0817 23.1109 11.4691ZM13.1434 17.5024C12.6904 17.5521 12.2331 17.5457 11.7805 17.4978C9.26288 17.1632 7.31466 15.0524 7.31466 12.4998C7.31466 9.71547 9.63057 7.4503 12.4775 7.4503C15.3244 7.4503 17.6407 9.71547 17.6407 12.4998C17.6407 15.063 15.6761 17.1812 13.1434 17.5024ZM3.18602 12.6162C3.1288 12.5311 3.1288 12.4254 3.18602 12.3396C4.1303 10.9331 5.37775 9.8012 6.80164 8.96841C6.14069 9.99151 5.75216 11.2007 5.75216 12.4998C5.75216 13.7695 6.12443 14.9525 6.75805 15.9608C5.35267 15.1302 4.12057 14.0081 3.18602 12.6162ZM21.8139 12.6162C20.8634 14.032 19.6061 15.1703 18.1702 16.0044C18.8207 14.9869 19.2032 13.7877 19.2032 12.4998C19.2032 11.1826 18.8049 9.95694 18.1268 8.92492C19.5813 9.76105 20.8539 10.9097 21.8143 12.3404C21.8712 12.425 21.8712 12.5307 21.8139 12.6162Z" fill="black"/>
<path d="M12.4775 9.81178C10.9749 9.81178 9.75224 11.0176 9.75224 12.5C9.75224 13.9824 10.9749 15.1882 12.4775 15.1882C13.9805 15.1882 15.2031 13.9824 15.2031 12.5C15.2031 11.0176 13.9805 9.81178 12.4775 9.81178ZM12.4775 13.6257C11.8362 13.6257 11.3147 13.1207 11.3147 12.5C11.3147 11.8793 11.8362 11.3743 12.4775 11.3743C13.1187 11.3743 13.6406 11.8793 13.6406 12.5C13.6406 13.1207 13.1187 13.6257 12.4775 13.6257ZM12.4775 5.11093C12.9089 5.11093 13.2587 4.76112 13.2587 4.32968V2.34375C13.2587 1.91231 12.9089 1.5625 12.4775 1.5625C12.046 1.5625 11.6962 1.91231 11.6962 2.34375V4.32968C11.6962 4.76112 12.046 5.11093 12.4775 5.11093ZM12.4775 19.8891C12.046 19.8891 11.6962 20.2389 11.6962 20.6703V22.6562C11.6962 23.0877 12.046 23.4375 12.4775 23.4375C12.9089 23.4375 13.2587 23.0877 13.2587 22.6562V20.6703C13.2587 20.2389 12.9089 19.8891 12.4775 19.8891ZM16.378 5.11093C16.6095 5.11093 16.8388 5.00832 16.9929 4.81224L18.5524 2.82631C18.8186 2.4868 18.7595 1.99585 18.4204 1.7292C18.0813 1.46294 17.5895 1.52206 17.3233 1.86119L15.7638 3.84712C15.4976 4.18663 15.5567 4.67758 15.8958 4.94423C16.0389 5.05638 16.209 5.11093 16.378 5.11093ZM7.96239 4.81224C8.1165 5.00832 8.34577 5.11093 8.57732 5.11093C8.74631 5.11093 8.91644 5.05638 9.0595 4.94423C9.399 4.67758 9.45775 4.18625 9.19148 3.84712L7.63165 1.86119C7.36463 1.52206 6.87367 1.46332 6.53455 1.7292C6.19504 1.99585 6.13629 2.48718 6.40256 2.82631L7.96239 4.81224ZM7.96239 20.1878L6.40256 22.1737C6.13629 22.5128 6.19504 23.0042 6.53455 23.2708C6.6776 23.3829 6.84773 23.4375 7.01672 23.4375C7.24828 23.4375 7.47754 23.3349 7.63165 23.1388L9.19148 21.1529C9.45775 20.8138 9.399 20.3224 9.0595 20.0558C8.72037 19.7895 8.22904 19.8479 7.96239 20.1878ZM16.9929 20.1878C16.7263 19.8486 16.2353 19.7899 15.8958 20.0558C15.5567 20.3224 15.4976 20.8134 15.7638 21.1529L17.3233 23.1388C17.4774 23.3349 17.7067 23.4375 17.9382 23.4375C18.1072 23.4375 18.2773 23.3829 18.4204 23.2708C18.7595 23.0042 18.8186 22.5132 18.5524 22.1737L16.9929 20.1878Z" fill="black"/>
</g>
</svg>
